<svg xmlns="http://www.w3.org/2000/svg" viewBox="0 0 32 32" width="32" height="32">
  <defs>
    <linearGradient id="goldGradient" x1="0%" y1="0%" x2="100%" y2="100%">
      <stop offset="0%" style="stop-color:#FFD700;stop-opacity:1" />
      <stop offset="50%" style="stop-color:#FFA500;stop-opacity:1" />
      <stop offset="100%" style="stop-color:#FFD700;stop-opacity:1" />
    </linearGradient>
  </defs>
  
  <!-- Background circle -->
  <circle cx="16" cy="16" r="15" fill="#FFFFFF"/>
  
  <!-- S letter -->
  <g transform="translate(16, 16)">
    <!-- Upper curve -->
    <path d="M -4 -5 Q -2 -7 1 -7 Q 4 -7 4 -5 Q 4 -3 1 -3" 
          stroke="url(#goldGradient)" 
          stroke-width="1.5" 
          fill="none" 
          stroke-linecap="round"/>
    
    <!-- Lower curve -->
    <path d="M -4 -3 Q -2 -1 1 -1 Q 4 -1 4 1 Q 4 3 1 3" 
          stroke="url(#goldGradient)" 
          stroke-width="2" 
          fill="none" 
          stroke-linecap="round"/>
    
    <!-- Star -->
    <path d="M 5 -7 L 5.5 -6 L 6.5 -6 L 5.8 -5.5 L 6.2 -4.5 L 5 -5 L 3.8 -4.5 L 4.2 -5.5 L 3.5 -6 L 4.5 -6 Z" 
          fill="url(#goldGradient)"/>
  </g>
  
  <!-- Medical cross -->
  <g transform="translate(16, 16)" opacity="0.6">
    <rect x="-0.5" y="-3" width="1" height="6" rx="0.5" fill="url(#goldGradient)"/>
    <rect x="-3" y="-0.5" width="6" height="1" rx="0.5" fill="url(#goldGradient)"/>
  </g>
</svg>
