<svg xmlns="http://www.w3.org/2000/svg" viewBox="0 0 200 200" width="200" height="200">
  <defs>
    <!-- Gold gradient -->
    <linearGradient id="goldGradient" x1="0%" y1="0%" x2="100%" y2="100%">
      <stop offset="0%" style="stop-color:#FFD700;stop-opacity:1" />
      <stop offset="30%" style="stop-color:#FFA500;stop-opacity:1" />
      <stop offset="70%" style="stop-color:#FF8C00;stop-opacity:1" />
      <stop offset="100%" style="stop-color:#FFD700;stop-opacity:1" />
    </linearGradient>
    
    <!-- Marble texture gradient -->
    <linearGradient id="marbleGradient" x1="0%" y1="0%" x2="100%" y2="100%">
      <stop offset="0%" style="stop-color:#FFFFFF;stop-opacity:1" />
      <stop offset="25%" style="stop-color:#F8F8F8;stop-opacity:1" />
      <stop offset="50%" style="stop-color:#F0F0F0;stop-opacity:1" />
      <stop offset="75%" style="stop-color:#F8F8F8;stop-opacity:1" />
      <stop offset="100%" style="stop-color:#FFFFFF;stop-opacity:1" />
    </linearGradient>
    
    <!-- Drop shadow filter -->
    <filter id="dropshadow" x="-20%" y="-20%" width="140%" height="140%">
      <feDropShadow dx="3" dy="6" stdDeviation="4" flood-color="#000000" flood-opacity="0.3"/>
    </filter>
    
    <!-- Inner shadow for depth -->
    <filter id="innerShadow" x="-20%" y="-20%" width="140%" height="140%">
      <feGaussianBlur in="SourceGraphic" stdDeviation="2"/>
      <feOffset dx="1" dy="1"/>
      <feFlood flood-color="#000000" flood-opacity="0.2"/>
      <feComposite in2="SourceGraphic" operator="in"/>
    </filter>
  </defs>
  
  <!-- Background circle with marble texture -->
  <circle cx="100" cy="100" r="95" fill="url(#marbleGradient)" filter="url(#dropshadow)"/>
  
  <!-- Marble veining pattern -->
  <g opacity="0.3">
    <path d="M 30 50 Q 60 30 90 50 Q 120 70 150 50 Q 180 30 170 80" stroke="#E0E0E0" stroke-width="2" fill="none"/>
    <path d="M 50 120 Q 80 100 110 120 Q 140 140 170 120" stroke="#E0E0E0" stroke-width="1.5" fill="none"/>
    <path d="M 40 160 Q 70 140 100 160 Q 130 180 160 160" stroke="#E0E0E0" stroke-width="1" fill="none"/>
  </g>
  
  <!-- Main S letter -->
  <g transform="translate(100, 100)">
    <!-- Upper curve of S -->
    <path d="M -25 -30 Q -15 -45 5 -45 Q 25 -45 25 -30 Q 25 -15 5 -15" 
          stroke="url(#goldGradient)" 
          stroke-width="8" 
          fill="none" 
          stroke-linecap="round"
          filter="url(#innerShadow)"/>
    
    <!-- Lower curve of S -->
    <path d="M -25 -15 Q -15 0 5 0 Q 25 0 25 15 Q 25 30 5 30" 
          stroke="url(#goldGradient)" 
          stroke-width="12" 
          fill="none" 
          stroke-linecap="round"
          filter="url(#innerShadow)"/>
    
    <!-- Star accent -->
    <g transform="translate(30, -45)">
      <path d="M 0 -8 L 2 -2 L 8 -2 L 4 2 L 6 8 L 0 4 L -6 8 L -4 2 L -8 -2 L -2 -2 Z" 
            fill="url(#goldGradient)" 
            filter="url(#innerShadow)"/>
    </g>
  </g>
  
  <!-- Medical cross overlay for clinic context -->
  <g transform="translate(100, 100)" opacity="0.7">
    <rect x="-3" y="-20" width="6" height="40" rx="3" fill="url(#goldGradient)"/>
    <rect x="-20" y="-3" width="40" height="6" rx="3" fill="url(#goldGradient)"/>
  </g>
  
  <!-- Subtle highlight on S -->
  <g transform="translate(100, 100)">
    <path d="M -20 -25 Q -10 -40 8 -40 Q 20 -40 20 -25" 
          stroke="rgba(255,255,255,0.4)" 
          stroke-width="2" 
          fill="none" 
          stroke-linecap="round"/>
  </g>
</svg>
